<svg xmlns="http://www.w3.org/2000/svg" xmlns:xlink="http://www.w3.org/1999/xlink" version="1.1" x="0px" y="0px" viewBox="0 0 100 125" style="enable-background:new 0 0 100 100;" xml:space="preserve"><g><path d="M45.47,71.129h-1.153c-1.104,0-2,0.896-2,2s0.896,2,2,2h1.153c1.104,0,2-0.896,2-2S46.574,71.129,45.47,71.129z"/><path d="M70.7,79.671c0.33-0.671,0.532-1.415,0.532-2.211v-0.267c0-2.306-1.717-5.583-4.455-6.014   c-0.044-0.052-0.086-0.104-0.13-0.157c-1.731-2.071-3.521-4.213-4.802-7.656c-1.832-4.91-1.783-5.987-1.436-8.23   c2.247-0.787,3.867-2.93,3.867-5.451c0-2.224-1.26-4.155-3.099-5.12c0.08-1.046,0.401-2.063,0.969-2.958   c2.502-3.912,4.142-6.854,4.142-11.901C66.287,18.729,54.604,5,50.173,5C50.114,5,50.058,5.012,50,5.017   C49.942,5.012,49.886,5,49.827,5c-4.431,0-16.114,13.729-16.114,24.706c0,5.047,1.64,7.989,4.138,11.896   c0.571,0.9,0.893,1.918,0.972,2.964c-1.839,0.965-3.099,2.896-3.099,5.12c0,2.521,1.62,4.664,3.867,5.451   c0.347,2.243,0.396,3.32-1.436,8.232c-1.28,3.44-3.07,5.583-4.802,7.654c-0.044,0.053-0.086,0.104-0.13,0.157   c-2.738,0.432-4.455,3.708-4.455,6.014v0.267c0,0.796,0.202,1.54,0.532,2.211c-2.806,1.517-4.717,4.485-4.717,7.892v2.9   c0,2.501,2.035,4.536,4.536,4.536h18.442h0.003h2.343h0.186h2.343h0.003h18.442c2.501,0,4.536-2.035,4.536-4.536v-2.9   C75.417,84.156,73.506,81.188,70.7,79.671z M71.417,90.464c0,0.295-0.24,0.536-0.536,0.536H52.438h-0.003h-2.343h-0.186h-2.343   h-0.003H29.119c-0.296,0-0.536-0.241-0.536-0.536v-2.9c0-2.738,2.228-4.966,4.966-4.966h14.016c0.012,0,0.022-0.003,0.034-0.003   h2.309h0.186h2.309c0.012,0,0.022,0.003,0.034,0.003h3.413c1.104,0,2-0.896,2-2s-0.896-2-2-2h-3.376   c-0.012,0-0.022-0.003-0.034-0.003H50.62c-0.169-0.046-0.343-0.079-0.527-0.079H33.831c-0.586,0-1.063-0.473-1.063-1.055v-0.267   c0-0.763,0.565-1.684,0.918-1.976c0.134,0.028,0.269,0.046,0.405,0.046c0.237,0,0.47-0.053,0.694-0.135h4.671c1.104,0,2-0.896,2-2   s-0.896-2-2-2h-1.062c1.265-1.689,2.512-3.687,3.508-6.364c1.873-5.02,2.057-6.933,1.77-9.303h3.892   c0.008,0,0.016-0.002,0.024-0.002h2.504c1.104,0,2-0.896,2-2s-0.896-2-2-2h-2.531c-0.008,0-0.016,0.002-0.024,0.002h-6.061   c-0.967,0-1.753-0.797-1.753-1.776c0-0.98,0.786-1.777,1.753-1.777h1.542c1.104,0,2-0.896,2-2s-0.896-2-2-2h-0.242   c-0.174-1.574-0.689-3.096-1.553-4.456c-2.387-3.733-3.511-5.912-3.511-9.747c0-9.388,9.888-20.104,12.198-20.708   C49.942,8.997,49.97,8.988,50,8.986c0.03,0.003,0.058,0.011,0.089,0.012c2.311,0.604,12.198,11.32,12.198,20.708   c0,3.835-1.124,6.014-3.515,9.753c-0.86,1.355-1.375,2.877-1.549,4.45h-4.29c-0.005,0-0.01-0.001-0.015-0.001h-2.346h-0.185h-2.346   c-1.104,0-2,0.896-2,2s0.896,2,2,2h2.346h0.185h1.848c0.005,0,0.01,0.001,0.015,0.001h6.088c0.967,0,1.753,0.797,1.753,1.777   c0,0.979-0.786,1.776-1.753,1.776h-3.272c-1.104,0-2,0.896-2,2s0.896,2,2,2h1.077c-0.288,2.37-0.103,4.283,1.77,9.301   c0.996,2.678,2.244,4.676,3.508,6.366H50.412c-1.104,0-2,0.896-2,2s0.896,2,2,2l14.794-0.003c0.226,0.085,0.463,0.138,0.703,0.138   c0.13,0,0.26-0.017,0.39-0.042c0.376,0.299,0.934,1.213,0.934,1.972v0.267c0,0.582-0.478,1.055-1.063,1.055h-4.472   c-0.195,0-0.381,0.037-0.559,0.089c-1.074,0.035-1.935,0.911-1.935,1.993c0,1.104,0.896,2,2,2h5.248   c2.738,0,4.966,2.228,4.966,4.966V90.464z"/></g><text x="0" y="115" fill="#000000" font-size="5px" font-weight="bold" font-family="'Helvetica Neue', Helvetica, Arial-Unicode, Arial, Sans-serif">Created by Maxim Kulikov</text><text x="0" y="120" fill="#000000" font-size="5px" font-weight="bold" font-family="'Helvetica Neue', Helvetica, Arial-Unicode, Arial, Sans-serif">from the Noun Project</text></svg>