<svg xmlns="http://www.w3.org/2000/svg" xmlns:xlink="http://www.w3.org/1999/xlink" version="1.1" x="0px" y="0px" viewBox="0 0 100 125" style="enable-background:new 0 0 100 100;" xml:space="preserve"><style type="text/css">
	.st0{display:none;}
</style><g><path d="M33.5,87.8c3.7,1.4,9.8,2,16.9,2c6.4,0,12.3-0.5,16.1-1.6l0,5.7C61.9,94.6,56.4,95,50.7,95c-6.3,0-12.2-0.5-17.1-1.3   L33.5,87.8z"/><path d="M64.1,79.5c-2.3-2.6-3.3-4.4-1.9-5.5c1.5-1.1,1.3-2-0.5-2.4s-6.5-7.2-6-19.9c0-1.7,0.4-1.5,2.6-1.5c0.4,0,2.2,0,2.2,0   c1,0,1.7-0.6,1.7-1.7c0-1.1-0.8-1.6-1.7-1.6h-0.2c-0.7,0-1-0.5-0.5-0.7c0,0,0,0,0,0c0.5-0.1,0.9-0.5,0.9-1.1c0-0.7-0.5-1.3-1.2-1.3   h-1.1c-0.4,0-0.7-0.4-0.8-0.9c0-0.4,0.3-0.8,0.6-0.8c0.4,0,0.7-0.4,0.7-0.8c0-0.5-0.5-0.8-1.3-0.8c0,0,4.1-9.8,4.4-11.9   s0.4-4.1-3.2-4.9C55.4,23,55,23,55,23v-1.6c0,0-0.6-0.3-2.4-0.5l2.5-2l-3-2.4h5v-5.6h-5.8c1.9-0.3,3.4-1.5,3.4-2.9c0-1.7-2-3-4.5-3   s-4.5,1.3-4.5,3c0,1.4,1.4,2.6,3.4,2.9H43v5.6h5l-3,2.4l2.5,2c-1.8,0.2-2.4,0.5-2.4,0.5V23c0,0-0.4,0-4,0.8   c-3.6,0.8-3.4,2.7-3.2,4.9s4.4,11.9,4.4,11.9c-0.9,0-1.3,0.3-1.3,0.8c0,0.4,0.3,0.8,0.7,0.8c0.3,0,0.6,0.4,0.6,0.8   c0,0.4-0.3,0.9-0.8,0.9h-1.1c-0.6,0-1.2,0.6-1.2,1.3c0,0.6,0.4,1,0.9,1.1c0,0,0,0,0,0c0.4,0.3,0.1,0.7-0.5,0.7h-0.2   c-0.9,0-1.7,0.6-1.7,1.6c0,1.1,0.7,1.7,1.7,1.7c0.1,0,1.9,0,2.2,0c2.2,0,2.6-0.3,2.6,1.5c0.4,12.7-4.3,19.5-6,19.9   s-1.9,1.3-0.5,2.4c1.5,1.1,0.5,2.9-1.9,5.5c-3.5,3.9-1.8,6.6-0.3,7.4c3.3,1.3,8.1,1.9,14.5,1.9s11.2-0.6,14.5-1.9   C65.9,86.2,67.7,83.4,64.1,79.5z"/></g><text x="0" y="115" fill="#000000" font-size="5px" font-weight="bold" font-family="'Helvetica Neue', Helvetica, Arial-Unicode, Arial, Sans-serif">Created by Dolly Holmes</text><text x="0" y="120" fill="#000000" font-size="5px" font-weight="bold" font-family="'Helvetica Neue', Helvetica, Arial-Unicode, Arial, Sans-serif">from the Noun Project</text></svg>