<svg xmlns="http://www.w3.org/2000/svg" viewBox="0 0 512 640" x="0px" y="0px"><title>chess, gambit, knight, sport, game, checkmate</title><path d="M148.45,293.06c12.08-25.14,36.05-27.38,56.54-31.3a102.543,102.543,0,0,1-.77,12.64c-6.539,53.507-52.484,76.116-30.951,108.993a12.053,12.053,0,0,0-7.509,11.16h0a12.054,12.054,0,0,0,12.054,12.054H334.186a12.054,12.054,0,0,0,12.054-12.054h0a12.046,12.046,0,0,0-7.814-11.271c1.283-1.988,2.18-3.508,2.182-3.51,40.517-51.473,59.983-137.561,8.859-213.444-18.362-27.255-49.535-48.745-85.528-58.962a168.329,168.329,0,0,0-37.156-6.212c-5.741-3.43-11.207-6.365-16.393-9.2-7.921-4.331-17.526,2.037-16.492,10.911a144.868,144.868,0,0,0-40.887,12.861,28.522,28.522,0,0,0-14.4,34.386c.014.043.029.086.043.128L146.674,173a5.939,5.939,0,0,0,.428.932C134.2,211.261,97.372,239.3,84.23,248.37a8.531,8.531,0,0,0-3.05,9.03c14.78,47.01,50.08,42.91,61.89,40.07A8.057,8.057,0,0,0,148.45,293.06ZM339.516,173.033C382.219,236.419,373.354,307.312,344,356c-2.626-18.7-15.258-39.106-25.5-62.5-10.29-23.52-.4-87.75-21-120-18.094-28.332-34.746-45.856-49.882-57.975C286.214,123.058,320.626,145,339.516,173.033ZM185.453,201.125a18.811,18.811,0,0,1-9.086,11.446,21.776,21.776,0,0,1-10.762,2.859,20.806,20.806,0,0,1-5.628-.768,6,6,0,1,1,3.246-11.553,9.6,9.6,0,0,0,7.2-.96,6.936,6.936,0,0,0,3.435-4.106,6,6,0,1,1,11.6,3.082ZM158.286,126.5a134.608,134.608,0,0,1,35.506-11.6c-2.117,11.226-10.061,18.079-18.512,22.24a51.272,51.272,0,0,0-21.433,20.106l-3.854-10.931A16.472,16.472,0,0,1,158.286,126.5Z"/><path d="M362.618,476.028H360.1a30.034,30.034,0,0,0,4.409-3.218,27.064,27.064,0,0,0,6.92-9.44,25,25,0,0,0,.99-2.71,24.127,24.127,0,0,0,1.04-7.01c0-19.36-17.71-35.04-39.53-35.04H178.07a42.145,42.145,0,0,0-27.96,10.25,33.161,33.161,0,0,0-11.57,24.79,24.127,24.127,0,0,0,1.04,7.01,23.785,23.785,0,0,0,1,2.71,27.935,27.935,0,0,0,11.331,12.658h-2.529A12.77,12.77,0,0,0,136.611,488.8v.43A12.771,12.771,0,0,0,149.382,502H362.618a12.771,12.771,0,0,0,12.771-12.771v-.43A12.77,12.77,0,0,0,362.618,476.028Z"/><text x="0" y="527" fill="#000000" font-size="5px" font-weight="bold" font-family="'Helvetica Neue', Helvetica, Arial-Unicode, Arial, Sans-serif">Created by Victoruler</text><text x="0" y="532" fill="#000000" font-size="5px" font-weight="bold" font-family="'Helvetica Neue', Helvetica, Arial-Unicode, Arial, Sans-serif">from the Noun Project</text></svg>