<svg xmlns="http://www.w3.org/2000/svg" viewBox="0 0 512 640" x="0px" y="0px"><title>chess, gambit, knight, sport, game, checkmate</title><path d="M181.2,201.785a6,6,0,0,0-7.34,4.258,6.936,6.936,0,0,1-3.435,4.106,9.6,9.6,0,0,1-7.2.96,6,6,0,1,0-3.246,11.553,20.806,20.806,0,0,0,5.628.768,21.776,21.776,0,0,0,10.762-2.859,18.811,18.811,0,0,0,9.086-11.446A6,6,0,0,0,181.2,201.785Z"/><path d="M372.557,472.99a31.573,31.573,0,0,0,5.6-10.593,30.175,30.175,0,0,0,1.3-8.751c0-17.253-11.877-32.043-28.642-38.1a17.864,17.864,0,0,0,1.423-6.992,18.049,18.049,0,0,0-7.987-14.978,43.19,43.19,0,0,0,5.842-16.783c34.674-52.2,47.041-131.71-.627-202.464-18.362-27.255-49.535-48.745-85.528-58.962a170.09,170.09,0,0,0-24.039-4.991c-8.7-5.9-16.849-10.346-24.4-14.466l-2.156-1.178A17.211,17.211,0,0,0,195.2,95.7a16.933,16.933,0,0,0-7.213,16.251,144,144,0,0,0-34.973,11.773,28.522,28.522,0,0,0-14.4,34.386c.014.043.029.086.043.128l5.1,14.46c-.363,1.04-.7,2.091-1.01,3.157C131.783,213.9,92.579,243.32,80.825,251.43A14.52,14.52,0,0,0,75.452,267.2C90.164,314,124.58,314.4,138.69,312.4a22.739,22.739,0,0,0,16.634-11.558c9.6-17.015,26.543-20.737,43.267-23.808-2.17,23.73-12.576,41.489-21.859,57.327-11.422,19.491-22.267,38.035-9.1,59.3a18.043,18.043,0,0,0-7.868,14.892,17.836,17.836,0,0,0,1.412,6.969,46.329,46.329,0,0,0-15.048,8.858c-8.759,7.787-13.583,18.18-13.583,29.266a30.142,30.142,0,0,0,1.292,8.737,31.333,31.333,0,0,0,5.636,10.59,18.957,18.957,0,0,0-8.86,16.041h0A18.986,18.986,0,0,0,149.6,508H362.4a18.986,18.986,0,0,0,18.986-18.986h0A18.955,18.955,0,0,0,372.557,472.99ZM339.516,181.033c40.438,60.023,34.629,126.774,8.971,175.032-3-12.08-9.029-24.49-15.21-37.2-3.1-6.375-6.3-12.966-9.28-19.768-3.772-8.619-4.6-24.954-5.475-42.249-1.379-27.273-2.944-58.184-15.965-78.574-14.979-23.455-29.025-39.7-42.063-51.635C293.774,136.1,322.756,156.157,339.516,181.033ZM149.993,154.315a16.472,16.472,0,0,1,8.293-19.815,134.118,134.118,0,0,1,28.988-10.242c-2.013,6.564-6.9,11.71-14.768,15.561a56.369,56.369,0,0,0-21.206,18.2Zm37.093,186.117C196.952,323.6,209.1,302.863,210.8,274.7c9.168-1.987,17.572-4.725,24.165-10.531a6,6,0,1,0-7.93-9c-6.437,5.668-17.113,7.611-28.415,9.669-19.2,3.5-40.962,7.46-53.746,30.115a10.83,10.83,0,0,1-7.865,5.574c-16.815,2.38-39.16-2.092-50.109-36.916a2.733,2.733,0,0,1,.74-2.3c16.127-11.128,54.9-41.406,66.631-82.135A45.706,45.706,0,0,1,177.779,150.6c16.753-8.2,24.6-22.476,22.1-40.207a4.914,4.914,0,0,1,2.145-4.824,5.258,5.258,0,0,1,5.56-.308l2.169,1.184c22.355,12.2,50.177,27.375,82.69,78.286,11.312,17.712,12.79,46.938,14.1,72.723.973,19.222,1.813,35.822,6.465,46.454,3.073,7.021,6.332,13.722,9.482,20.2,14.549,29.922,22.477,48.583,9.467,66.391H179.972C168,374.752,174.126,362.547,187.086,340.432Zm-15.325,68.121a6.059,6.059,0,0,1,6.052-6.053H334.187a6.032,6.032,0,0,1,4.271,10.311c-1.488-.133-3-.2-4.523-.2H178.065q-2.288,0-4.54.2A6.027,6.027,0,0,1,171.761,408.553Zm-17.675,24.806a36.04,36.04,0,0,1,23.979-8.752h155.87c18.485,0,33.523,13.027,33.523,29.039a18.228,18.228,0,0,1-.786,5.292,20.47,20.47,0,0,1-6.141,9.378,23.724,23.724,0,0,1-2.193,1.712H153.673a20.993,20.993,0,0,1-8.351-11.111,18.252,18.252,0,0,1-.78-5.271A27.07,27.07,0,0,1,154.086,433.359Zm215.3,55.655A6.987,6.987,0,0,1,362.4,496H149.6a6.986,6.986,0,0,1-6.986-6.986h0a6.987,6.987,0,0,1,6.987-6.986H362.4a6.986,6.986,0,0,1,6.986,6.986Z"/><text x="0" y="527" fill="#000000" font-size="5px" font-weight="bold" font-family="'Helvetica Neue', Helvetica, Arial-Unicode, Arial, Sans-serif">Created by Victoruler</text><text x="0" y="532" fill="#000000" font-size="5px" font-weight="bold" font-family="'Helvetica Neue', Helvetica, Arial-Unicode, Arial, Sans-serif">from the Noun Project</text></svg>