<svg xmlns="http://www.w3.org/2000/svg" xmlns:xlink="http://www.w3.org/1999/xlink" version="1.1" x="0px" y="0px" viewBox="0 0 100 125" enable-background="new 0 0 100 100" xml:space="preserve"><path d="M70.697,77.608c0.152-0.33,0.26-0.685,0.311-1.058c0.596-0.313,0.945-0.686,0.945-1.085c0-0.494-0.529-0.946-1.404-1.296  c-0.805-1.709-2.479-3.506-4.156-4.327c-2.424-1.095-3.289-2.879-3.52-4.428c0.807-0.264,1.316-0.644,1.316-1.069  c0-0.419-0.498-0.796-1.285-1.058c0.084-0.476,0.197-0.803,0.252-0.888c0.205-0.353-1.131-1.124-3.639-1.804  c-1.275-2.644-3.186-4.622-3.344-13.246c-0.041-2.179-0.002-3.856,0.09-5.141h0.281c1.068,0,1.936-0.489,1.936-1.093  c0-0.092-0.021-0.18-0.061-0.266h1.039c1.475,0,2.672-1.128,2.723-2.537c0.453-0.189,0.73-0.439,0.73-0.714  c0-0.36-0.479-0.68-1.211-0.875c-0.457-0.632-1.191-1.061-2.035-1.122c0.197-0.223,0.313-0.482,0.313-0.759  c0-0.833-1.02-1.507-2.277-1.507h-2.158c1.994-2.1,3.268-5.127,3.268-7.894c0-4.866-3.943-7.944-8.81-7.944  c-4.867,0-8.812,3.078-8.812,7.944c0,2.767,1.276,5.794,3.269,7.894h-2.159c-1.257,0-2.277,0.674-2.277,1.507  c0,0.276,0.115,0.536,0.312,0.759c-0.842,0.062-1.578,0.489-2.033,1.122c-0.732,0.195-1.212,0.515-1.212,0.875  c0,0.274,0.278,0.524,0.73,0.714c0.05,1.409,1.248,2.537,2.722,2.537h1.04c-0.038,0.086-0.06,0.174-0.06,0.266  c0,0.604,0.866,1.093,1.936,1.093h0.526c0.111,1.244,0.174,2.856,0.164,4.932c-0.04,8.279-2.026,10.326-3.432,13.142  c-2.741,0.701-4.116,1.624-3.87,2.117c0.038,0.084,0.164,0.408,0.27,0.882c-0.799,0.263-1.304,0.642-1.304,1.063  c0,0.444,0.553,0.84,1.42,1.104c-0.191,1.521-1.049,3.266-3.622,4.394c-1.683,0.736-3.367,2.587-4.168,4.331  c-0.867,0.35-1.393,0.8-1.393,1.292c0,0.399,0.349,0.771,0.945,1.085c0.05,0.373,0.158,0.728,0.31,1.058  c-1.547,0.434-1.889,1.356-1.889,2.304c0,1.429,0.804,2.588,1.795,2.588h41.582c0.992,0,1.795-1.159,1.795-2.588  C72.586,78.965,72.244,78.042,70.697,77.608z"/><text x="0" y="115" fill="#000000" font-size="5px" font-weight="bold" font-family="'Helvetica Neue', Helvetica, Arial-Unicode, Arial, Sans-serif">Created by Yeong Rong Kim</text><text x="0" y="120" fill="#000000" font-size="5px" font-weight="bold" font-family="'Helvetica Neue', Helvetica, Arial-Unicode, Arial, Sans-serif">from the Noun Project</text></svg>