<svg xmlns="http://www.w3.org/2000/svg" xmlns:xlink="http://www.w3.org/1999/xlink" version="1.1" x="0px" y="0px" viewBox="0 0 100 125" enable-background="new 0 0 100 100" xml:space="preserve"><g><path d="M68.65,80.484v-3.238c1.785-0.654,3.065-2.366,3.065-4.375c0-2.263-1.62-4.152-3.761-4.573   c-1.198-1.491-5.598-7.084-6.626-10.095c-1.024-2.994-2.433-12.891-2.87-16.474c1.771-0.662,3.037-2.367,3.037-4.365   c0-2.222-1.563-4.083-3.648-4.548c3.64-2.504,6.031-6.696,6.031-11.438C63.879,13.726,57.652,7.5,50,7.5   s-13.878,6.226-13.878,13.879c0,4.742,2.392,8.934,6.03,11.438c-2.084,0.465-3.649,2.326-3.649,4.548   c0,1.999,1.267,3.703,3.039,4.365c-0.439,3.583-1.847,13.479-2.87,16.474c-1.028,3.011-5.428,8.604-6.626,10.095   c-2.141,0.421-3.761,2.311-3.761,4.573c0,2.009,1.279,3.721,3.065,4.375v3.238c-3.477,0.608-6.131,3.642-6.131,7.291v3.447   c0,0.706,0.572,1.277,1.278,1.277h47.008c0.706,0,1.277-0.571,1.277-1.277v-3.447C74.781,84.126,72.128,81.093,68.65,80.484z    M33.905,77.533h2.569v2.832h-2.569V77.533z M37.495,77.533h28.601v2.832H37.495V77.533z M56.834,35.257   c1.162,0,2.107,0.945,2.107,2.107s-0.945,2.107-2.107,2.107h-2.42c-0.706,0-1.277,0.572-1.277,1.277s0.571,1.278,1.277,1.278h1.507   c0.444,3.643,1.875,13.741,2.99,17.002c0.903,2.644,3.837,6.719,5.724,9.18H61.95c-0.704,0-1.277,0.571-1.277,1.277   c0,0.705,0.573,1.277,1.277,1.277h5.104c1.162,0,2.108,0.944,2.108,2.107c0,1.162-0.946,2.107-2.108,2.107H35.355   c-0.568-0.525-0.926-1.274-0.926-2.107s0.358-1.581,0.926-2.107h4.049c0.706,0,1.278-0.572,1.278-1.277   c0-0.706-0.572-1.277-1.278-1.277h-0.652c1.822-2.342,5.038-6.703,5.968-9.428c1.082-3.169,2.49-13.034,2.944-16.754h0.81   c0.706,0,1.277-0.572,1.277-1.278s-0.572-1.277-1.277-1.277h-2.9c-0.568-0.524-0.926-1.274-0.926-2.107   c0-0.833,0.358-1.582,0.926-2.107H56.834z M61.324,21.379c0,6.243-5.081,11.323-11.324,11.323c-0.27,0-0.535-0.013-0.8-0.031   c-4.586-1.751-7.802-6.209-7.801-11.292c0-5.083,3.214-9.542,7.802-11.293c0.265-0.018,0.529-0.031,0.799-0.031   C56.243,10.055,61.324,15.135,61.324,21.379z M38.676,21.379c0-4.667,2.838-8.683,6.878-10.414   c-3.154,2.418-5.176,6.219-5.176,10.414c0,4.194,2.021,7.994,5.175,10.413C41.514,30.06,38.676,26.045,38.676,21.379z    M43.166,35.257h1.086c-0.394,0.609-0.625,1.331-0.625,2.107c0,0.777,0.23,1.5,0.625,2.107h-1.086   c-1.162,0-2.107-0.945-2.107-2.107S42.003,35.257,43.166,35.257z M41.089,59.029c1.114-3.262,2.547-13.359,2.991-17.002h2.554   c-0.467,3.799-1.854,13.42-2.88,16.424c-0.96,2.813-4.68,7.704-6.301,9.758h-2.088C37.251,65.748,40.186,61.673,41.089,59.029z    M32.946,70.764h1.085c-0.393,0.609-0.624,1.331-0.624,2.107s0.23,1.499,0.624,2.107h-1.085c-1.162,0-2.107-0.945-2.107-2.107   C30.839,71.708,31.784,70.764,32.946,70.764z M27.772,87.775c0-2.618,2.084-4.752,4.68-4.846c-1.297,1.213-2.111,2.935-2.111,4.846   v2.17h-2.568V87.775z M72.227,89.945H31.363v-2.17c0-2.071,1.129-3.879,2.801-4.854h33.209c2.677,0,4.854,2.178,4.854,4.854V89.945   z"/><path d="M47.899,69.486c0,0.705,0.573,1.277,1.278,1.277h8.174c0.707,0,1.277-0.572,1.277-1.277c0-0.706-0.57-1.277-1.277-1.277   h-8.174C48.472,68.209,47.899,68.78,47.899,69.486z"/></g><text x="0" y="115" fill="#000000" font-size="5px" font-weight="bold" font-family="'Helvetica Neue', Helvetica, Arial-Unicode, Arial, Sans-serif">Created by Fernando Affonso</text><text x="0" y="120" fill="#000000" font-size="5px" font-weight="bold" font-family="'Helvetica Neue', Helvetica, Arial-Unicode, Arial, Sans-serif">from the Noun Project</text></svg>