<svg xmlns="http://www.w3.org/2000/svg" xmlns:xlink="http://www.w3.org/1999/xlink" version="1.1" x="0px" y="0px" viewBox="0 0 100 125" enable-background="new 0 0 100 100" xml:space="preserve"><g display="none"><path display="inline" stroke="#000000" stroke-miterlimit="10" d="M50,26l3.6,4l4.5-2c0,0-2.7,3.783-2.7,7c0,1.97,0,3,0,3   c0,3.638,2.7,4,2.7,4c0.99,0,1.8,0.9,1.8,2c0,1.1-0.81,2-1.8,2c-3.094,3.438-2.7,3.938-2.7,14c0,11.36,6.3,17,6.3,17s0,0.701,0,3   c0,1.625,5.4,2.375,5.4,6s-1.8,2.25-1.8,5c1.485,0,2.7,1.35,2.7,3c0,1.65-1.215,3-2.7,3H34.7c-1.485,0-2.7-1.35-2.7-3   c0-1.65,1.215-3,2.7-3c0-2.75-1.8-1.375-1.8-5s5.4-4.375,5.4-6c0-2.299,0-3,0-3s6.3-5.64,6.3-17c0-10.062,0.394-10.562-2.7-14   c-0.99,0-1.8-0.9-1.8-2c0-1.1,0.81-2,1.8-2c0,0,2.7-0.362,2.7-4c0,0,0-1.03,0-3c0-3.217-2.7-7-2.7-7l4.5,2C46.4,30,50,26,50,26z"/><line display="inline" fill="#000000" stroke="#FFFFFF" stroke-miterlimit="10" x1="39.126" y1="38" x2="60.032" y2="38"/><line display="inline" fill="#000000" stroke="#FFFFFF" stroke-miterlimit="10" x1="33.9" y1="42" x2="67" y2="42"/><line display="inline" fill="#000000" stroke="#FFFFFF" stroke-miterlimit="10" x1="33.9" y1="46" x2="65.258" y2="46"/><line display="inline" fill="#000000" stroke="#FFFFFF" stroke-miterlimit="10" x1="33.712" y1="80" x2="66.288" y2="80"/><line display="inline" fill="#000000" stroke="#FFFFFF" stroke-miterlimit="10" x1="33.712" y1="77" x2="66.288" y2="77"/><line display="inline" fill="#000000" stroke="#FFFFFF" stroke-miterlimit="10" x1="28.7" y1="91" x2="71.3" y2="91"/><g display="inline"><path d="M53.986,28.187l2.123-0.944c-1.25-1.863-3.626-3.149-5.881-3.232L53.986,28.187z"/><path d="M46.014,28.187l3.758-4.176c-2.256,0.082-4.632,1.368-5.882,3.232L46.014,28.187z"/></g><path display="inline" d="M50,23c0.998,0,2.026,0.214,3,0.596L53,23c0-1.658-1.342-3-3-3s-3,1.342-3,3l0,0.596   C47.974,23.214,49.002,23,50,23z"/></g><g><g><path d="M55.9,60c0-1.125-0.005-2.13-0.009-3.034c-0.034-7.001-0.037-7.698,2.433-10.466H41.676    c2.471,2.769,2.467,3.465,2.433,10.466C44.105,57.87,44.1,58.875,44.1,60c0,10.119-5.144,15.648-6.003,16.5h23.806    C61.044,75.648,55.9,70.119,55.9,60z"/><rect x="37.8" y="77.5" width="24.4" height="2"/><path d="M44.078,38.5c-0.218,2.667-2.156,2.992-2.178,3h16.242c-0.236-0.043-2.012-0.452-2.22-3H44.078z"/><path d="M59.927,45.5c0.292-0.419,0.473-0.935,0.473-1.5s-0.18-1.081-0.467-1.5H40.072C39.78,42.919,39.6,43.435,39.6,44    c0,0.565,0.181,1.081,0.473,1.5H59.927z"/><path d="M67.521,91.5H32.479C31.881,92.136,31.5,93.017,31.5,94c0,1.93,1.436,3.5,3.2,3.5h30.6c1.765,0,3.2-1.57,3.2-3.5    C68.5,93.017,68.119,92.136,67.521,91.5z"/><path d="M44.1,35v2.5h11.8V35c0-3.016,2.581-6.673,2.607-6.709l1.062-1.491l-5.84,2.596L50,25.252l-3.729,4.143l-5.843-2.597    l1.065,1.492C41.519,28.327,44.1,31.979,44.1,35z"/><path d="M34.172,90.5h31.657c0.077-0.667,0.317-0.913,0.63-1.224C66.967,88.772,67.6,88.146,67.6,86    c0-2.457-2.16-3.728-3.738-4.656c-0.467-0.275-0.968-0.571-1.297-0.844h-25.13c-0.329,0.272-0.83,0.569-1.297,0.844    C34.56,82.272,32.4,83.543,32.4,86c0,2.146,0.633,2.772,1.141,3.276C33.855,89.587,34.094,89.833,34.172,90.5z"/><path d="M53.986,28.187l2.123-0.944c-1.25-1.863-3.626-3.149-5.881-3.232L53.986,28.187z"/><path d="M49.772,24.011c-2.256,0.082-4.632,1.368-5.882,3.232l2.123,0.944L49.772,24.011z"/><path d="M53,23.596L53,23c0-1.658-1.342-3-3-3s-3,1.342-3,3l0,0.596C47.974,23.214,49.002,23,50,23S52.026,23.214,53,23.596z"/></g></g><g display="none" opacity="0.2"><g display="inline"><g><path d="M52.497,82.07l-1.088,0.387c-0.082-0.358-0.38-0.633-0.849-0.633c-0.574,0-0.842,0.417-0.842,0.842l0,1.408     c0,0.501,0.28,0.879,0.849,0.879c0.569,0,0.991-0.324,0.991-0.324l0.001-0.584h-1.156V83.09l2.19,0c0,0,0,1.651,0,1.927     c-0.361,0.495-1.215,1.001-2.026,1.001c-1.348,0-2.004-0.842-2.004-2.026l0-1.222c0-1.073,0.656-2.019,2.004-2.019     C51.551,80.751,52.243,81.28,52.497,82.07z"/><g><path d="M30.408,85.973v-5.19h3.668v1.029h-2.52v1.051h2.148v0.992h-2.148v1.089h2.52v1.029H30.408z"/><path d="M75.413,85.973v-2.118h-1.7v2.118h-1.148v-5.19h1.148v2.08h1.7v-2.08h1.133v5.19H75.413z"/></g><path d="M46.75,81.685c0,0-0.776-0.952-2.013-0.952s-2.013,0.952-2.013,0.952s-0.001,1.05-0.001,1.078v0.639v0.416v1.252     c0,0,0.786,0.958,2.014,0.958h0c1.228,0,2.014-0.958,2.014-0.958v-1.252v-0.416v-0.639C46.752,82.735,46.75,81.685,46.75,81.685z      M45.602,83.393v0.245v0.868c0,0-0.259,0.433-0.869,0.433h0c-0.61,0-0.869-0.433-0.869-0.433v-0.868v-0.245v-0.376     c0-0.016,0.001-0.765,0.001-0.765s0.254-0.429,0.868-0.429c0.614,0,0.868,0.429,0.868,0.429s0.001,0.749,0.001,0.765V83.393z"/><path d="M26.48,80.793c1.155,0,1.966,0.992,1.966,0.992l0,0.959c0,0,0,1.072,0,1.109c-0.002,0.666,0,1.131,0,1.131     s-0.714,0.993-2.093,0.993h-1.936l0-5.184H26.48z M27.306,83.026v-0.133c0-0.003,0-0.006,0-0.009     c0-0.218-0.001-0.606-0.001-0.606s-0.151-0.254-0.5-0.367c-0.138-0.056-0.308-0.084-0.512-0.084h-0.73l0,3.121h0.752     c0.246,0,0.436-0.045,0.58-0.129c0.284-0.124,0.41-0.335,0.41-0.335v-0.849v-0.239v-0.368     C27.306,83.028,27.306,83.027,27.306,83.026z"/><path d="M70.8,82.45L70.8,82.45c0,0.16,0,0.691,0,0.691s-0.843,0.934-1.819,0.934H67.99l0,1.894h-1.148l0-5.189l2.139,0     c0.976,0,1.819,0.934,1.819,0.934S70.8,82.436,70.8,82.45z M69.637,82.16c0,0-0.332-0.351-0.716-0.351H67.99v1.238h0.932     c0.384,0,0.716-0.351,0.716-0.351s0-0.254,0-0.268S69.637,82.16,69.637,82.16z"/><path d="M58.547,85.979l-0.994-2.213l-0.004-0.001c0.558-0.277,0.949-0.711,0.949-0.711v-0.429v-0.215h0l0-0.302v-0.387     c0,0-0.845-0.937-1.824-0.937h-2.145l0,2.37l-0.003-0.001l0,2.825h1.151l0-1.987h0.003h0.754l0.812,1.987H58.547z M55.68,81.816     h0.934c0.385,0,0.718,0.352,0.718,0.352s0,0.048,0,0.12c0,0.057,0,0.094,0,0.1c0,0.006,0,0.051,0,0.104c0,0.076,0,0.116,0,0.116     s-0.333,0.352-0.718,0.352H55.68V81.816z"/><path d="M39.665,85.973l0-2.47l-0.022-0.008l-0.47,1.052l-0.308,0.643c0,0-0.217,0.099-0.496,0.099     c-0.278,0-0.462-0.086-0.462-0.086l-0.33-0.694l-0.455-1.015l-0.022,0.022l0,2.455h-1.149l0-5.193h1.037l0.701,1.507l0.671,1.559     h0.03l0.649-1.559l0.686-1.507h1.082l0,5.193H39.665z"/><path d="M63.909,85.973l-0.392-1.065c0,0-0.389,0.153-0.888,0.153c-0.499,0-0.867-0.153-0.867-0.153l-0.392,1.065h-1.22     l2.034-5.17c0,0,0.197-0.052,0.449-0.052c0.252,0,0.462,0.052,0.462,0.052l2.033,5.17H63.909z M62.96,83.332l-0.309-1.035h-0.03     l-0.301,1.02l-0.185,0.581c0,0,0.169,0.112,0.494,0.112c0.325,0,0.516-0.11,0.516-0.11L62.96,83.332z"/></g><g><path d="M35.493,92.398c0.594,0,1.102,0.217,1.354,0.737c0.143,0.291,0.154,0.691,0.154,1.182c0,0.554-0.012,0.959-0.143,1.267     c-0.263,0.6-0.822,0.788-1.462,0.788h-1.205v-3.975H35.493z M36.498,94.02c0-0.874-0.422-1.16-1.028-1.16h-0.777v3.05h0.777     c0.754,0,1.028-0.445,1.028-1.131V94.02z"/><path d="M39.425,94.083c-0.114-0.074-0.251-0.108-0.4-0.108c-0.371,0-0.645,0.234-0.645,0.685v1.713h-0.469V93.54h0.469v0.36     h0.023c0.2-0.291,0.44-0.389,0.743-0.389c0.194,0,0.371,0.046,0.48,0.12L39.425,94.083z"/><path d="M42.386,94.426v1.947h-0.474v-0.246l-0.006-0.006c-0.103,0.166-0.4,0.286-0.783,0.286c-0.645,0-1.005-0.354-1.005-0.839     c0-0.44,0.297-0.834,0.902-0.834h0.891v-0.32c0-0.308-0.194-0.462-0.651-0.462c-0.354,0-0.548,0.097-0.674,0.246l-0.297-0.314     c0.211-0.246,0.565-0.371,0.953-0.371C41.855,93.512,42.386,93.706,42.386,94.426z M41.181,95.979     c0.365,0,0.731-0.103,0.731-0.525v-0.331h-0.777c-0.365,0-0.571,0.154-0.571,0.417C40.564,95.808,40.764,95.979,41.181,95.979z"/><path d="M45.887,95.699c0.063-0.223,0.126-0.469,0.183-0.686l0.411-1.473H47l-0.908,2.832h-0.445l-0.422-1.365l-0.246-0.788     l-0.229,0.783l-0.422,1.37h-0.451l-0.902-2.832h0.514l0.429,1.49l0.183,0.634h0.023c0.057-0.205,0.126-0.417,0.183-0.616     l0.469-1.508h0.434l0.457,1.49l0.194,0.668H45.887z"/><path d="M49.569,93.54v0.314l0.017,0.006c0.217-0.251,0.491-0.349,0.771-0.349c0.811,0,1.011,0.72,1.011,1.422     c0,0.731-0.211,1.474-1.102,1.474c-0.28,0-0.52-0.092-0.685-0.286h-0.011v1.382h-0.469V93.54H49.569z M50.209,95.939     c0.588,0,0.668-0.52,0.668-0.977c0-0.44-0.045-0.988-0.64-0.988c-0.577,0-0.668,0.571-0.668,0.988     C49.569,95.391,49.638,95.939,50.209,95.939z"/><path d="M52.625,95.117v0.046c0,0.445,0.246,0.811,0.731,0.811c0.183,0,0.451-0.097,0.64-0.269l0.302,0.337     c-0.268,0.257-0.617,0.365-0.965,0.365c-0.577,0-1.199-0.268-1.199-1.439c0-1.12,0.645-1.462,1.182-1.462     c0.623,0,1.131,0.456,1.131,1.245v0.365H52.625z M52.625,94.723h1.331c-0.023-0.508-0.28-0.771-0.663-0.771     C52.91,93.952,52.653,94.231,52.625,94.723z"/><path d="M57.368,93.992c0.131,0.206,0.194,0.502,0.194,0.868c0,0.485-0.046,0.805-0.177,1.028     c-0.195,0.331-0.571,0.52-1.017,0.52c-0.405,0-0.743-0.143-0.937-0.428c-0.155-0.235-0.211-0.56-0.211-1.011     c0-0.32,0.034-0.588,0.143-0.811c0.189-0.405,0.577-0.64,1.068-0.64C56.836,93.517,57.173,93.689,57.368,93.992z M55.791,94.34     c-0.08,0.171-0.097,0.383-0.103,0.634c0,0.251,0.012,0.451,0.086,0.617c0.109,0.246,0.32,0.389,0.599,0.389     c0.303,0,0.56-0.155,0.668-0.503c0.04-0.137,0.046-0.297,0.046-0.599c0-0.217-0.017-0.389-0.074-0.525     c-0.109-0.28-0.331-0.411-0.6-0.411C56.134,93.94,55.906,94.088,55.791,94.34z"/><path d="M58.919,93.54v0.314l0.017,0.006c0.217-0.251,0.491-0.349,0.771-0.349c0.811,0,1.011,0.72,1.011,1.422     c0,0.731-0.211,1.474-1.102,1.474c-0.28,0-0.52-0.092-0.685-0.286h-0.011v1.382h-0.469V93.54H58.919z M59.559,95.939     c0.588,0,0.668-0.52,0.668-0.977c0-0.44-0.045-0.988-0.639-0.988c-0.577,0-0.668,0.571-0.668,0.988     C58.919,95.391,58.988,95.939,59.559,95.939z"/><path d="M62.31,96.373c-0.411,0-0.697-0.171-0.697-0.657v-3.489h0.469v3.449c0,0.171,0.097,0.269,0.291,0.269h0.137v0.428H62.31z     "/><path d="M63.59,95.117v0.046c0,0.445,0.246,0.811,0.731,0.811c0.183,0,0.451-0.097,0.64-0.269l0.302,0.337     c-0.268,0.257-0.617,0.365-0.965,0.365c-0.577,0-1.199-0.268-1.199-1.439c0-1.12,0.645-1.462,1.182-1.462     c0.623,0,1.131,0.456,1.131,1.245v0.365H63.59z M63.59,94.723h1.331c-0.023-0.508-0.28-0.771-0.663-0.771     C63.875,93.952,63.619,94.231,63.59,94.723z"/><path d="M66.183,96.373v-0.634h0.588v0.634H66.183z"/></g><g><path d="M53.589,18.108c0-0.985,0-4.141,0-5.142c-1.893-0.429-3.105-0.389-3.105-0.389s-1.212-0.039-3.105,0.389     c0,1.001,0,4.157,0,5.142c1.569-0.391,3.105-0.376,3.105-0.376S52.02,17.717,53.589,18.108z"/><path d="M45.513,26.506c0.328-0.146,1.317-0.465,1.317-0.465l0.001,23.654c0,0,1.726,0.504,3.001,0.504l0-14.941h1.305l0,14.941     c1.275,0,3.001-0.504,3.001-0.504l0.001-23.654c0,0,0.989,0.319,1.317,0.465v6.508c0,0,1.39,0.521,2.893,1.666     c0-1.131-0.002-12.994-0.002-12.994s-3.13-2.677-7.861-2.678h0c0,0,0,0-0.001,0h-0.001l0,0c-4.731,0.001-7.861,2.678-7.861,2.678     S42.62,33.549,42.62,34.68c1.503-1.145,2.893-1.666,2.893-1.666V26.506z"/><path d="M55.464,50.502c0,0-2.155,0.994-4.982,0.994c-2.828,0-4.982-0.994-4.982-0.994l0.009-12.929c0,0-1.472-0.598-2.908-1.691     c0,1.759,0,11.204,0,12.963c0.068,0.136,0.089,0.178,3.938,7.837c0.771,0.231,2.231,0.58,3.949,0.58     c1.718,0,3.166-0.349,3.937-0.58c3.848-7.659,3.87-7.701,3.938-7.837c0-1.759,0-11.204,0-12.963     c-1.436,1.093-2.908,1.691-2.908,1.691L55.464,50.502z"/><path d="M47.379,58.345c0.865,1.722,1.89,3.761,3.104,6.177c1.214-2.416,2.238-4.455,3.104-6.177     c-0.838,0.189-1.954,0.376-3.104,0.376C49.333,58.721,48.217,58.534,47.379,58.345z"/><path d="M77.969,15.423C71.109,7.254,61.083,2.568,50.463,2.568c-10.595,0-20.606,4.67-27.465,12.812l-0.595,0.705l-0.001,45.137     l0.607,0.709c6.853,8.011,16.859,12.606,27.453,12.606c10.619,0,20.643-4.657,27.501-12.778l0.597-0.706l0.001-44.925     L77.969,15.423z M73.505,59.184c-5.873,6.556-14.219,10.299-23.044,10.299c-8.807,0-17.139-3.687-23.006-10.148l0.001-41.384     C33.33,11.375,41.663,7.622,50.463,7.622c8.822,0,17.17,3.768,23.044,10.367L73.505,59.184z"/></g></g></g><text x="0" y="115" fill="#000000" font-size="5px" font-weight="bold" font-family="'Helvetica Neue', Helvetica, Arial-Unicode, Arial, Sans-serif">Created by DEMOGRAPH</text><text x="0" y="120" fill="#000000" font-size="5px" font-weight="bold" font-family="'Helvetica Neue', Helvetica, Arial-Unicode, Arial, Sans-serif">from the Noun Project</text></svg>