<svg xmlns="http://www.w3.org/2000/svg" viewBox="0 0 96 120" x="0px" y="0px"><title>rook 2</title><g><path d="M66.3333,32A1.8552,1.8552,0,0,0,68,30V26a1.8552,1.8552,0,0,0-1.6667-2H29.6667A1.8552,1.8552,0,0,0,28,26v4a1.8552,1.8552,0,0,0,1.6667,2Z"/><rect x="16" y="84" width="64" height="12" rx="2" ry="2"/><path d="M24,20H72a1.9988,1.9988,0,0,0,2-2V2a1.9988,1.9988,0,0,0-2-2H64a1.9988,1.9988,0,0,0-2,2V8H54V2a1.9988,1.9988,0,0,0-2-2H44a1.9988,1.9988,0,0,0-2,2V8H34V2a1.9988,1.9988,0,0,0-2-2H24a1.9988,1.9988,0,0,0-2,2V18A1.9988,1.9988,0,0,0,24,20Z"/><rect x="20" y="72" width="56" height="8" rx="2" ry="2"/><path d="M69.5447,68c-4.5054-11.3657-5.3379-22.6079-5.4961-32H31.9514c-.1582,9.3921-.9907,20.6343-5.4961,32Z"/></g><text x="0" y="111" fill="#000000" font-size="5px" font-weight="bold" font-family="'Helvetica Neue', Helvetica, Arial-Unicode, Arial, Sans-serif">Created by Nociconist</text><text x="0" y="116" fill="#000000" font-size="5px" font-weight="bold" font-family="'Helvetica Neue', Helvetica, Arial-Unicode, Arial, Sans-serif">from the Noun Project</text></svg>