<svg xmlns="http://www.w3.org/2000/svg" xmlns:xlink="http://www.w3.org/1999/xlink" version="1.1" x="0px" y="0px" viewBox="0 0 36 66.25" style="enable-background:new 0 0 36 53;" xml:space="preserve"><g><path d="M33.03,53h-30c-1.654,0-3-1.346-3-3v-1c0-1.654,1.346-3,3-3h30c1.654,0,3,1.346,3,3v1C36.03,51.654,34.684,53,33.03,53z    M3.03,48c-0.551,0-1,0.449-1,1v1c0,0.551,0.449,1,1,1h30c0.552,0,1-0.449,1-1v-1c0-0.551-0.448-1-1-1H3.03z"/><path d="M28.03,48h-20c-1.654,0-3-1.346-3-3s1.346-3,3-3h20c1.654,0,3,1.346,3,3S29.684,48,28.03,48z M8.03,44   c-0.551,0-1,0.449-1,1s0.449,1,1,1h20c0.552,0,1-0.449,1-1s-0.448-1-1-1H8.03z"/><path d="M28.03,23h-20c-1.654,0-3-1.346-3-3s1.346-3,3-3h20c1.654,0,3,1.346,3,3S29.684,23,28.03,23z M8.03,19   c-0.551,0-1,0.449-1,1s0.449,1,1,1h20c0.552,0,1-0.449,1-1s-0.448-1-1-1H8.03z"/><g><path d="M24.03,19h-12c-0.552,0-1-0.448-1-1v-4c0-0.552,0.448-1,1-1h12c0.552,0,1,0.448,1,1v4C25.03,18.552,24.582,19,24.03,19z     M13.03,17h10v-2h-10V17z"/><path d="M27.03,44h-18c-0.552,0-1-0.448-1-1v-6.838c0-2.218,0.4-4.409,1.189-6.513c0.531-1.416,0.811-3.771,0.811-6.811V22    c0-0.552,0.448-1,1-1h14c0.552,0,1,0.448,1,1v0.838c0,3.04,0.281,5.395,0.812,6.811c0.789,2.104,1.188,4.295,1.188,6.513V43    C28.03,43.552,27.582,44,27.03,44z M10.03,42h16v-5.838c0-1.978-0.357-3.933-1.061-5.811c-0.613-1.634-0.929-4.107-0.938-7.351    h-12c-0.01,3.244-0.326,5.717-0.938,7.351c-0.704,1.878-1.062,3.833-1.062,5.811L10.03,42L10.03,42z"/></g><path d="M24.03,15h-12c-0.265,0-0.52-0.105-0.707-0.293l-5-5C6.135,9.519,6.03,9.265,6.03,9V1c0-0.552,0.448-1,1-1h4   c0.552,0,1,0.448,1,1v3h3V1c0-0.552,0.448-1,1-1h4c0.552,0,1,0.448,1,1v3h3V1c0-0.552,0.448-1,1-1h4c0.552,0,1,0.448,1,1v8   c0,0.265-0.105,0.52-0.293,0.707l-5,5C24.549,14.895,24.295,15,24.03,15z M12.444,13h11.171l4.414-4.414V2h-2v3   c0,0.552-0.448,1-1,1h-5c-0.552,0-1-0.448-1-1V2h-2v3c0,0.552-0.448,1-1,1h-5c-0.552,0-1-0.448-1-1V2h-2v6.586L12.444,13z"/></g><text x="0" y="68" fill="#000000" font-size="5px" font-weight="bold" font-family="'Helvetica Neue', Helvetica, Arial-Unicode, Arial, Sans-serif">Created by Prettycons</text><text x="0" y="73" fill="#000000" font-size="5px" font-weight="bold" font-family="'Helvetica Neue', Helvetica, Arial-Unicode, Arial, Sans-serif">from the Noun Project</text></svg>